<svg xmlns="http://www.w3.org/2000/svg" xmlns:xlink="http://www.w3.org/1999/xlink" width="784" height="282" viewBox="0 0 784 282">
  <defs>
    <rect id="payouts-flow-aac-a" width="90" height="120" x="101" y="34" rx="7.042"/>
    <mask id="payouts-flow-aac-b" width="90" height="120" x="0" y="0" fill="#fff">
      <use xlink:href="#payouts-flow-aac-a"/>
    </mask>
  </defs>
  <g fill="none" fill-rule="evenodd">
    <rect width="72" height="72" y="58" fill="#F5F7FA" rx="34.873"/>
    <rect width="72" height="72" x="712" y="58" fill="#F5F7FA" rx="34.873"/>
    <path stroke="#6C7378" d="M380.042352 35.5C376.429111 35.5 373.5 38.4291106 373.5 42.0423517L373.5 147.957648C373.5 151.570889 376.429111 154.5 380.042352 154.5L473.957648 154.5C477.570889 154.5 480.5 151.570889 480.5 147.957648L480.5 42.0423517C480.5 38.4291106 477.570889 35.5 473.957648 35.5L380.042352 35.5zM515.042352 35.5C511.429111 35.5 508.5 38.4291106 508.5 42.0423517L508.5 147.957648C508.5 151.570889 511.429111 154.5 515.042352 154.5L583.957648 154.5C587.570889 154.5 590.5 151.570889 590.5 147.957648L590.5 42.0423517C590.5 38.4291106 587.570889 35.5 583.957648 35.5L515.042352 35.5z"/>
    <rect width="83" height="85" x="619.5" y=".5" stroke="#6C7378" rx="7.042"/>
    <use stroke="#6C7378" stroke-dasharray="4 4" stroke-width="2" mask="url(#payouts-flow-aac-b)" xlink:href="#payouts-flow-aac-a"/>
    <rect width="123" height="119" x="220.5" y="34.5" stroke="#6C7378" rx="7.042"/>
    <rect width="83" height="85" x="619.5" y="103.5" stroke="#6C7378" rx="7.042"/>
    <text fill="#003087" font-family="PayPalSansBig-Regular, PayPal Sans Big, sans-serif" font-size="12">
      <tspan x="633.33" y="251">Recipients </tspan> <tspan x="640.42" y="266">notified</tspan>
    </text>
    <text fill="#003087" font-family="PayPalSansBig-Regular, PayPal Sans Big, sans-serif" font-size="12">
      <tspan x="506.23" y="251">Payment status </tspan> <tspan x="498.09" y="266">reported to sender</tspan>
    </text>
    <text fill="#003087" font-family="PayPalSansBig-Regular, PayPal Sans Big, sans-serif" font-size="12">
      <tspan x="389.69" y="251">API processes </tspan> <tspan x="402.83" y="266">payment</tspan>
    </text>
    <text fill="#003087" font-family="PayPalSansBig-Regular, PayPal Sans Big, sans-serif" font-size="12">
      <tspan x="239.11" y="251">Sender initiates </tspan> <tspan x="257.33" y="266">payment</tspan>
    </text>
    <text fill="#003087" font-family="PayPalSansBig-Regular, PayPal Sans Big, sans-serif" font-size="12">
      <tspan x="95.44" y="251">Customer signs up </tspan> <tspan x="99.24" y="266">through Assisted </tspan> <tspan x="98.47" y="281">Account Creation</tspan>
    </text>
    <text fill="#6C7378" font-family="PayPalSansBig-Medium, PayPal Sans Big, sans-serif" font-size="8.216" font-weight="400">
      <tspan x="654.57" y="97">OR</tspan>
    </text>
    <text fill="#6C7378" font-family="PayPalSansBig-Regular, PayPal Sans Big, sans-serif" font-size="10.564">
      <tspan x="628.49" y="75">Existing users</tspan>
    </text>
    <text fill="#6C7378" font-family="PayPalSansBig-Regular, PayPal Sans Big, sans-serif" font-size="10.564">
      <tspan x="636.98" y="178">New users</tspan>
    </text>
    <text fill="#6C7378" font-family="PayPalSansBig-Regular, PayPal Sans Big, sans-serif" font-size="10.564">
      <tspan x="523.74" y="114">Processed, </tspan> <tspan x="529.21" y="128">blocked, </tspan> <tspan x="513.3" y="142">unclaimed, etc.</tspan>
    </text>
    <text fill="#6C7378" font-family="PayPalSansBig-Bold, PayPal Sans Big, sans-serif" font-size="10.428" font-weight="bold">
      <tspan x="722" y="157">Recipients</tspan>
    </text>
    <text fill="#6C7378" font-family="PayPalSansBig-Bold, PayPal Sans Big, sans-serif" font-size="10.428" font-weight="bold">
      <tspan x="18.9" y="157">Sender</tspan>
    </text>
    <text fill="#6C7378" font-family="PayPalSansBig-Regular, PayPal Sans Big, sans-serif" font-size="10.564">
      <tspan x="121.55" y="113">Gain more </tspan> <tspan x="116.04" y="127">signups with </tspan> <tspan x="116.08" y="141">PayPal users</tspan>
    </text>
    <path stroke="#6C7378" stroke-linecap="round" stroke-linejoin="round" stroke-width=".576" d="M34.4927309 96.8228327C34.4927309 96.8228327 29.8256557 96.297001 29.3607942 92.014995 29.3406558 91.8315272 29.3238738 91.3138861 29.3238738 91.3138861 29.3238738 89.8772681 30.5170742 88.7125756 31.9871778 88.7125756 33.2424716 88.7125756 34.2947032 89.5594758 34.5766409 90.6995968 34.5766409 90.6995968 37.6141836 90.0705645 38.2569343 86.2914567L38.7889238 81.1166835 47.98714 81.1166835 48.5191295 86.6108871C48.6164651 87.5020161 47.8545622 88.9206149 47.8545622 88.9206149 47.8545622 88.9206149 49.5344407 92.2738155 50.826655 94.0134829 51.7681254 95.281376 48.5677973 96.3576109 48.5677973 96.3576109L48.0391642 103.119708C43.8604453 104.667717 40.8917089 104.479335 40.8917089 104.479335L40.8917089 114 28.4327494 108.024194 28.4327494 104.571069C28.4327494 101.114667 25.1166255 98.686996 23.7371448 96.8834425 22.0018856 94.6146673 21 91.7889365 21 88.7404234 21 81.1510837 27.3033205 75 35.0784228 75 35.7211736 75 36.6122979 75.0081905 36.7817962 75.0081905 43.0733693 75.0081905 48.0693718 78.0091986 48.0693718 78.0091986M749.327367 113.570538C737.46344 116.511264 733.263211 103.386394 736.502896 103.386394 737.986747 103.386394 738.072818 105.942483 735.390868 105.358534 724.255095 102.937068 725.010792 92.177717 725.010792 92.177717 725.010792 92.177717 732.660719 99.3459554 740.954451 82.1946337 744.879255 74.0805375 750.325783 72 756.223318 72 764.894038 72 772 78.2608443 772 87.0672875 772 97.4332596 763.300016 103.208062 763.300016 103.208062L763.300016 107.047441 752.412126 112.353686 752.412126 104.865499 749.589021 104.865499C746.90535 104.865499 744.924012 103.778025 744.605552 100.767365L744.176922 96.8685423C744.176922 96.8685423 742.684463 95.9436647 742.684463 95.2215958 742.684463 93.737246 744.641701 93.5833911 744.641701 89.9887818 744.641701 88.2246958 744.719165 84.084601 746.767637 80.7137806 746.767637 80.7137806 749.094978 90.4573398 757.381824 91.7528678L757.400759 91.7546161C757.745041 90.7038573 758.722799 89.945073 759.872698 89.945073 761.310071 89.945073 762.475463 91.1304549 762.475463 92.5903278 762.475463 92.6515201 762.468577 92.7127124 762.468577 92.7721563 762.468577 96.7986083 758.147849 97.9560165 758.147849 97.9560165"/>
    <rect width="20" height="20" x="272" y="211" fill="#003087" rx="10"/>
    <rect width="58.826" height="18.826" x="116.59" y="211.59" fill="#003087" stroke="#003087" stroke-width="1.174" rx="9.413"/>
    <rect width="20" height="20" x="417" y="211" fill="#003087" rx="10"/>
    <rect width="20" height="20" x="539" y="211" fill="#003087" rx="10"/>
    <rect width="20" height="20" x="651" y="211" fill="#003087" rx="10"/>
    <text fill="#FFF" font-family="PayPalSansBig-MediumItalic, PayPal Sans Big, sans-serif" font-size="11.15" font-style="italic" font-weight="500">
      <tspan x="279.66" y="224">1</tspan>
    </text>
    <text fill="#FFF" font-family="PayPalSansBig-MediumItalic, PayPal Sans Big, sans-serif" font-size="11.15" font-style="italic" font-weight="500">
      <tspan x="122.96" y="224">Optional</tspan>
    </text>
    <text fill="#FFF" font-family="PayPalSansBig-MediumItalic, PayPal Sans Big, sans-serif" font-size="11.15" font-style="italic" font-weight="500">
      <tspan x="423.87" y="224">2</tspan>
    </text>
    <text fill="#FFF" font-family="PayPalSansBig-MediumItalic, PayPal Sans Big, sans-serif" font-size="11.15" font-style="italic" font-weight="500">
      <tspan x="545.91" y="224">3</tspan>
    </text>
    <text fill="#FFF" font-family="PayPalSansBig-MediumItalic, PayPal Sans Big, sans-serif" font-size="11.15" font-style="italic" font-weight="500">
      <tspan x="657.45" y="224">4</tspan>
    </text>
    <g transform="translate(382 57)">
      <path stroke="#003087" stroke-linecap="round" stroke-linejoin="round" stroke-width=".648" d="M19.4876546 29.0571429L13.7371992 29.0571429 12.1897676 33.8340972C11.4769507 34.1116878 10.7940841 34.4551811 10.1511513 34.8565891L5.632651 33.1171546 2.01265941 37.5865626 4.77008268 41.8263093C4.526487 42.5911811 4.34878195 43.3880059 4.24894765 44.2107923L0 46.7590339 1.29584917 52.3627688 6.14579928 52.7841473C6.57508676 53.4671399 7.0662715 54.1042003 7.61136675 54.6893373L6.90853331 59.6620029 12.0779532 62.1822857 15.5362132 58.5975729C15.8896266 58.6295258 16.2490301 58.6435052 16.6124269 58.6435052 16.9738271 58.6435052 17.3352272 58.6295258 17.6906373 58.5975729L21.1469007 62.1822857 26.3163205 59.6620029 25.6114904 54.6893373C26.1565856 54.1042003 26.6477704 53.4671399 27.0790545 52.7841473L31.9290047 52.3627688 33.2228571 46.7590339 28.9739095 44.2107923C28.8740752 43.3880059 28.6983668 42.5911811 28.4547711 41.8263093L31.2121944 37.5865626 27.5941995 33.1171546 23.0717059 34.8565891C22.428773 34.4551811 21.7479031 34.1116878 21.0330896 33.8340972M16.6124269 50.6333196C19.1941418 50.6333196 21.284672 48.4804948 21.284672 45.8244124 21.284672 43.1663328 19.1941418 41.0135081 16.6124269 41.0135081 14.030712 41.0135081 11.9381852 43.1663328 11.9381852 45.8244124 11.9381852 48.4804948 14.030712 50.6333196 16.6124269 50.6333196M46.4258385 4.26635685L44.0572384 0 38.3011544.98987398 37.5704808 5.78878303C36.9331711 6.1589959 36.3344247 6.58068222 35.7823602 7.04790274M31.213721 5.9580792L28.4194952 11.0567108 31.7701643 14.7445658C31.6780909 15.4408458 31.6420622 16.1533183 31.6680829 16.8718631L27.9771429 20.1650245 30.2289366 25.5308333 35.1068221 25.1381638C35.6072207 25.6704941 36.153656 26.1542468 36.73612 26.5894218L36.9422842 31.5180315 42.4846991 33.1251429 45.2789249 29.006161C45.6231992 28.9737759 45.9714766 28.9272223 46.319754 28.8644761 46.670033 28.803754 47.0123057 28.7268394 47.3485735 28.6377803L51.3677751 31.5423203 56.0314901 28.1155703 54.5583166 23.4116323C54.9586355 22.8023873 55.3069129 22.1567091 55.5991457 21.484718L60.3129005 20.1670486 60.6171429 14.3458241 56.0354933 12.5261854C55.8153179 11.8420498 55.5410994 11.1842272 55.2188427 10.5628378L57.1203574 5.93986257 52.7688912 2.11437082 48.5835573 4.61409691C47.9070184 4.35501599 47.2064603 4.15260902 46.4898895 4.01497228M44.7430907 21.0730593C47.252737 20.6327732 48.925178 18.2591418 48.4839215 15.766144 48.042665 13.275103 45.6492424 11.6117999 43.1435359 12.052086 40.6338895 12.4904153 38.9594787 14.8660035 39.4007352 17.3570445 39.8439616 19.8500423 42.2354143 21.5133454 44.7430907 21.0730593"/>
      <text fill="#003087" font-family="PayPalSansBig-MediumItalic, PayPal Sans Big, sans-serif" font-size="13.997" font-style="italic" font-weight="500">
        <tspan x="41.97" y="52.36">PayPal </tspan> <tspan x="41.97" y="69.36">API</tspan>
      </text>
    </g>
    <g stroke="#000" stroke-width=".72" transform="translate(480 89)">
      <path stroke-linecap="square" d="M0.609109529,4.64285714 L22.1914127,4.64285714"/>
      <polyline stroke-linecap="round" stroke-linejoin="round" points="16.17 7.14 20.73 2.86 25.52 7.14" transform="rotate(90 20.844 5)"/>
    </g>
    <g stroke="#000" stroke-width=".72" transform="translate(344 89)">
      <path stroke-linecap="square" d="M0.609109529,4.64285714 L22.1914127,4.64285714"/>
      <polyline stroke-linecap="round" stroke-linejoin="round" points="16.17 7.14 20.73 2.86 25.52 7.14" transform="rotate(90 20.844 5)"/>
    </g>
    <g stroke="#000" stroke-width=".72" transform="translate(190 89)">
      <path stroke-linecap="square" d="M0.609109529,4.64285714 L22.1914127,4.64285714"/>
      <polyline stroke-linecap="round" stroke-linejoin="round" points="16.17 7.14 20.73 2.86 25.52 7.14" transform="rotate(90 20.844 5)"/>
    </g>
    <g stroke="#000" stroke-width=".72" transform="translate(71 89)">
      <path stroke-linecap="square" d="M0.609109529,4.64285714 L22.1914127,4.64285714"/>
      <polyline stroke-linecap="round" stroke-linejoin="round" points="16.17 7.14 20.73 2.86 25.52 7.14" transform="rotate(90 20.844 5)"/>
    </g>
    <g stroke="#000" stroke-width=".72" transform="rotate(45 316.216 867.56)">
      <path stroke-linecap="square" d="M0.0906558975,4.64285714 L30.18896,4.64285714"/>
      <polyline stroke-linecap="round" stroke-linejoin="round" points="24.15 7.14 28.72 2.86 33.52 7.14" transform="rotate(90 28.837 5)"/>
    </g>
    <g stroke="#000" stroke-width=".72" transform="rotate(-45 356.784 -682.365)">
      <path stroke-linecap="square" d="M0.0906558975,4.64285714 L30.18896,4.64285714"/>
      <polyline stroke-linecap="round" stroke-linejoin="round" points="24.15 7.14 28.72 2.86 33.52 7.14" transform="rotate(90 28.837 5)"/>
    </g>
    <g stroke="#000" stroke-width=".72" transform="rotate(-45 529.167 -770.768)">
      <path stroke-linecap="square" d="M0.0906558975,4.64285714 L30.18896,4.64285714"/>
      <polyline stroke-linecap="round" stroke-linejoin="round" points="24.15 7.14 28.72 2.86 33.52 7.14" transform="rotate(90 28.837 5)"/>
    </g>
    <g stroke="#000" stroke-width=".72" transform="rotate(45 144.333 780.365)">
      <path stroke-linecap="square" d="M0.0906558975,4.64285714 L30.18896,4.64285714"/>
      <polyline stroke-linecap="round" stroke-linejoin="round" points="24.15 7.14 28.72 2.86 33.52 7.14" transform="rotate(90 28.837 5)"/>
    </g>
    <path stroke="#6C7378" stroke-linecap="round" stroke-linejoin="round" stroke-width=".72" d="M648.208746 19L684.847191 19C685.964291 19 686.080274 19.4949333 685.123923 20.1008L661.434887 35 637.747885 20.1008C636.783395 19.4928 636 19.9578667 636 21.1482667L636 48.8517333C636 50.0378667 636.927865 51 638.026652 51L684.845156 51C685.964291 51 686.875878 50.0592 686.881982 48.8496L687 27.7082667M641.208746 115L677.847191 115C678.964291 115 679.080274 115.494933 678.123923 116.1008L654.434887 131 630.747885 116.1008C629.783395 115.4928 629 115.957867 629 117.148267L629 144.851733C629 146.037867 629.927865 147 631.026652 147L677.845156 147C678.964291 147 679.875878 146.0592 679.881982 144.8496L680 123.708267"/>
    <path stroke="#020303" stroke-linecap="round" stroke-linejoin="round" stroke-width=".72" d="M19.9096789 6.34882762C24.2212385 8.34369848 27.282844 13.1646364 27.282844 18.7593424L27.282844 24.8346309C27.282844 26.5106247 28.3379817 28.6143066 29.5950459 29.628366 29.5950459 29.628366 31 30.3054131 31 31.5461623 31 31.5461623 31 33 29.4272477 33L1.57275229 33C0 33 0 31.5461623 0 31.5461623 0 30.1860231 1.38504587 29.5966294 1.38504587 29.5966294 2.6733945 28.6415094 3.71715596 26.524226 3.71715596 24.8346309L3.71715596 18.7593424C3.71715596 11.3949441 9.01986239 5.37103865 15.5 5.37103865L15.5 0M11 35C11.5043624 36.4385 13.3255034 37.892 15.5 38 17.6760067 37.892 19.4956376 36.4385 20 35" transform="translate(534 52)"/>
    <path fill="#0070BA" d="M655.5,139 L683.5,139 C689.29899,139 694,143.70101 694,149.5 L694,149.5 C694,155.29899 689.29899,160 683.5,160 L655.5,160 C649.70101,160 645,155.29899 645,149.5 L645,149.5 C645,143.70101 649.70101,139 655.5,139 Z"/>
    <text fill="#FFF" font-family="PayPalSansBig-Regular, PayPal Sans Big, sans-serif" font-size="8.743">
      <tspan x="653.85" y="152">Sign Up</tspan>
    </text>
    <text fill="#6C7378" font-family="PayPalSansBig-Regular, PayPal Sans Big, sans-serif" font-size="10.564">
      <tspan x="244" y="115">Call API, upload</tspan>
    </text>
    <text fill="#6C7378" font-family="PayPalSansBig-Regular, PayPal Sans Big, sans-serif" font-size="10.564">
      <tspan x="230" y="129">spreadsheet, or share</tspan>
    </text>
    <text fill="#6C7378" font-family="PayPalSansBig-Regular, PayPal Sans Big, sans-serif" font-size="10.564">
      <tspan x="237" y="143">file on SFTP server</tspan>
    </text>
    <g stroke="#6C7378" stroke-linecap="round" stroke-linejoin="round" transform="translate(267.996 62)">
      <path d="M18.4866825,21.7688502 L18.3715278,0.986707779 C18.3715278,0.442045085 17.9494792,0 17.4301111,0 L1.43695139,0 C0.917583333,0 0.496527778,0.442045085 0.496527778,0.986707779 L0.406032288,13.8139709 M8.44097222,6.41333333 L14.3993056,6.41333333 M8.44097222,11.84 L14.3993056,11.84 M4.46875,6.41333333 L5.46180556,6.41333333 M4.46875,11.84 L5.46180556,11.84" transform="rotate(15 5.51 46.46)"/>
      <path d="M6.44791667,24.3455595 L9.71705556,21.1746075 C10.1053403,20.798099 10.7339444,20.798099 11.1222292,21.1746075 L14.3923611,24.3455595 M10.4201389,20.8922261 L10.4201389,28.2922261"/>
      <path d="M21.4562099,29.4534985 C21.8580481,28.3234862 22.078059,27.1067583 22.078059,25.8394464 C22.078059,19.8533621 17.1932703,15 11.1684248,15 C5.14267011,15 0.258790505,19.8533621 0.258790505,25.8394464 C0.258790505,31.8255307 5.14267011,36.6788928 11.1684248,36.6788928 L20.2597867,36.6788928 C24.2772595,36.6788928 27.5328762,33.4433181 27.5328762,29.4525952 C27.5328762,27.0859827 26.3828189,24.9930663 24.614549,23.674267"/>
    </g>
    <g transform="translate(226.996 40)">
      <g fill="#6C7378" transform="translate(1.303 .86)">
        <circle cx="1.734" cy="1.682" r="1"/>
        <circle cx="4.004" cy="1.682" r="1"/>
        <circle cx="6.275" cy="1.682" r="1"/>
      </g>
      <rect width="40" height="32" x=".5" y=".5" stroke="#6C7378" rx="1.866"/>
      <text fill="#6C7378" font-family="CourierNewPSMT, Courier New" font-size="16.796" transform="translate(5 6)">
        <tspan x=".07" y="14.97">&gt;_</tspan>
      </text>
      <path stroke="#6C7378" stroke-linecap="square" d="M1.18396226,4.46901408 L39.8177897,4.46901408"/>
    </g>
    <g transform="translate(305.996 42)">
      <path fill="#6C7378" fill-rule="nonzero" d="M5.60937477,47.6328129 L5.60937477,46.8125011 C6.2109367,47.2187507 6.85937358,47.3593756 7.36718559,47.3593756 C8.0937474,47.3593756 8.59374692,47.0625009 8.59374692,46.5156264 C8.59374692,45.3906275 5.85156204,45.7343772 5.85156204,44.0078163 C5.85156204,43.1015672 6.67968625,42.4453178 7.74218524,42.4453178 C8.23437227,42.4453178 8.70312182,42.5312552 9.17968386,42.781255 L9.17968386,43.5781292 C8.69530933,43.2812545 8.25780974,43.1640671 7.77343521,43.1640671 C7.13281082,43.1640671 6.68749874,43.4687543 6.68749874,43.9687538 C6.68749874,45.0625028 9.4531211,44.7421906 9.4531211,46.476564 C9.4531211,47.429688 8.54687197,48.0859374 7.37499809,48.0859374 C6.74218619,48.0859374 6.03906186,47.9140626 5.60937477,47.6328129 Z M11.351561,48 L10.5156243,48 L10.5156243,42.5312552 L13.9453086,42.5312552 L13.9453086,43.2343795 L11.351561,43.2343795 L11.351561,44.9218779 L13.7031213,44.9218779 L13.7031213,45.6250023 L11.351561,45.6250023 L11.351561,48 Z M14.6015623,43.2343795 L14.6015623,42.5312552 L19.4921826,42.5312552 L19.4921826,43.2343795 L17.4687471,43.2343795 L17.4687471,48 L16.6328104,48 L16.6328104,43.2343795 L14.6015623,43.2343795 Z M22.3906224,45.890627 L21.2499985,45.890627 L21.2499985,48 L20.4140618,48 L20.4140618,42.5312552 L22.3906224,42.5312552 C23.5390588,42.5312552 24.3593706,43.1718796 24.3593706,44.2109411 C24.3593706,45.2500026 23.5390588,45.890627 22.3906224,45.890627 Z M23.4921839,44.2109411 C23.4921839,43.5859417 23.0156218,43.2343795 22.3437475,43.2343795 L21.2499985,43.2343795 L21.2499985,45.1875027 L22.3437475,45.1875027 C23.0156218,45.1875027 23.4921839,44.8359405 23.4921839,44.2109411 Z"/>
      <g stroke="#6C7378">
        <path stroke-linecap="square" d="M29.9289651,7.75140453 L29.9289651,2.314125 C29.9289651,1.03606905 28.8928961,-6.78864278e-16 27.6148401,-4.4408921e-16 L2.314125,0 C1.03606905,2.34775069e-16 7.31661707e-16,1.03606905 8.8817842e-16,2.314125 L0,36.4895928 C1.56516712e-16,37.7676488 1.03606905,38.8037178 2.314125,38.8037178 L27.6613852,38.8037178 C28.9394412,38.8037178 29.9755102,37.7676488 29.9755102,36.4895928 L29.9755102,12.6437345 L5.0113893,12.6437345 M29.929394,24.7131748 L0.0455468395,24.7131748"/>
        <path stroke-linecap="round" stroke-linejoin="round" d="M19.7400234,19.4863706 L4.8477317,19.4863706 M19.7400234,5.4142057 L4.8477317,5.4142057"/>
        <rect width="3.871" height="3.898" x="22.1" y="3.31" rx="1.935"/>
        <rect width="3.871" height="3.898" x="22.1" y="17.39" rx="1.935"/>
        <path stroke-linecap="round" stroke-linejoin="round" d="M19.7400234,32.35235 L4.8477317,32.35235"/>
        <rect width="3.871" height="3.898" x="22.1" y="30.65" rx="1.935"/>
      </g>
    </g>
    <g stroke="#6C7378" stroke-linecap="round" stroke-linejoin="round" transform="translate(122 53)">
      <path d="M51 23.42L51 1.57833333C51 .706666667 50.2622 0 49.3544 0L1.6456 0C.7378 0 0 .706666667 0 1.57833333L0 28.42C0 29.2916667.7378 30 1.6456 30L49.3544 30C50.2622 30 51 29.2916667 51 28.42M33 12L45 12M33 18L41 18"/>
      <path d="M23,12.9997363 C23,12.2608466 22.5954864,11.6231043 21.9990001,11.2768034 L21.9990001,10.9990769 C21.9990001,10.0836081 21.7350379,9.2367137 21.3065276,8.49953844 C21.7350379,7.76064882 21.9990001,6.91375445 21.9990001,6 L16.999143,6 C14.2395372,6 11.9992858,8.2372412 11.9992858,10.9990769 L11.9992858,11.2768034 C11.4045136,11.6231043 11,12.2608466 11,12.9997363 C11,13.9152051 11.6187687,14.6780957 12.4603628,14.9163919 C13.2505356,17.3233549 14.9817169,19 16.999143,19 C19.0165691,19 20.7494644,17.3233549 21.5396372,14.9163919 C22.3795172,14.6798101 23,13.9152051 23,12.9997363 Z"/>
      <path d="M6 30L6 29.09101C6 27.2647059 7.05428571 25.5948946 8.73085714 24.7641509L15 21.6625971 15 18M20 20L20 20.7901639 26.2691429 23.8459016C27.9457143 24.6622951 29 26.3081967 29 28.104918L29 29"/>
    </g>
    <path stroke="#2C2E2F" stroke-linecap="round" stroke-linejoin="round" d="M116 68L124.699 68M110 62L126.699 62M119.9541 73.5357L123.9081 73.5357"/>
    <path fill="#0070BA" d="M149.5,80 L171.5,80 C176.19442,80 180,83.8055796 180,88.5 L180,88.5 C180,93.1944204 176.19442,97 171.5,97 L149.5,97 C144.80558,97 141,93.1944204 141,88.5 L141,88.5 C141,83.8055796 144.80558,80 149.5,80 Z"/>
    <text fill="#FFF" font-family="PayPalSansBig-Regular, PayPal Sans Big, sans-serif" font-size="6.994">
      <tspan x="148.38" y="90">Sign Up</tspan>
    </text>
  </g>
</svg>
